<svg width="71" height="21" viewBox="0 0 71 21" fill="none" xmlns="http://www.w3.org/2000/svg">
<path d="M70.3536 10.8535C70.5488 10.6583 70.5488 10.3417 70.3536 10.1464L67.1716 6.96446C66.9763 6.7692 66.6597 6.7692 66.4645 6.96446C66.2692 7.15972 66.2692 7.4763 66.4645 7.67157L69.2929 10.5L66.4645 13.3284C66.2692 13.5237 66.2692 13.8403 66.4645 14.0355C66.6597 14.2308 66.9763 14.2308 67.1716 14.0355L70.3536 10.8535ZM4.37114e-08 11L70 11L70 9.99999L-4.37114e-08 10L4.37114e-08 11Z" fill="#CE0019"/>
<circle cx="10" cy="10" r="9.5" transform="matrix(-4.37114e-08 1 1 4.37114e-08 40 0.5)" fill="#1A1E2B" stroke="#CE0019"/>
</svg>
