<svg width="1320" height="223" viewBox="0 0 1320 223" fill="none" xmlns="http://www.w3.org/2000/svg">
<rect width="1320" height="223" rx="10" fill="#0B0C17" fill-opacity="0.5"/>
<mask id="mask0_360_162" style="mask-type:alpha" maskUnits="userSpaceOnUse" x="0" y="0" width="1320" height="223">
<rect width="1320" height="223" rx="10" fill="white" fill-opacity="0.72"/>
</mask>
<g mask="url(#mask0_360_162)">
<path opacity="0.1" d="M-222 202.619C-222 202.619 -27.335 78.798 113.179 69.9449C293.184 58.6038 451.571 187.105 547.948 225.623C644.326 264.141 859.466 287.154 1004.67 182.29C1125.6 94.9548 1118.23 -20.8422 1191 -151" stroke="white"/>
<path opacity="0.1" d="M-191 202.619C-191 202.619 3.66501 78.798 144.179 69.9449C324.184 58.6038 482.571 187.105 578.948 225.623C675.326 264.141 890.466 287.154 1035.67 182.29C1156.6 94.9548 1149.23 -20.8422 1222 -151" stroke="white"/>
<path opacity="0.1" d="M-160 202.619C-160 202.619 34.665 78.798 175.179 69.9449C355.184 58.6038 513.571 187.105 609.948 225.623C706.326 264.141 921.466 287.154 1066.67 182.29C1187.6 94.9548 1180.23 -20.8422 1253 -151" stroke="white"/>
<path opacity="0.1" d="M-129 202.619C-129 202.619 65.8028 78.798 206.416 69.9449C386.548 58.6038 545.048 187.105 641.493 225.623C737.939 264.141 953.232 287.154 1098.54 182.29C1219.56 94.9548 1212.18 -20.8422 1285 -151" stroke="white"/>
<mask id="mask1_360_162" style="mask-type:luminance" maskUnits="userSpaceOnUse" x="847" y="76" width="21" height="21">
<path d="M868 76H847V97H868V76Z" fill="white"/>
</mask>
<g mask="url(#mask1_360_162)">
<path d="M857.5 97C857.196 87.0525 856.947 86.8055 847 86.5C856.947 86.196 857.194 85.9475 857.5 76C857.804 85.9475 858.053 86.1945 868 86.5C858.053 86.8055 857.806 87.0495 857.5 97Z" fill="#CE0019"/>
</g>
</g>
<g clip-path="url(#clip0_360_162)">
<mask id="mask2_360_162" style="mask-type:luminance" maskUnits="userSpaceOnUse" x="410" y="31" width="32" height="32">
<path d="M442 31H410V63H442V31Z" fill="white"/>
</mask>
<g mask="url(#mask2_360_162)">
<path d="M426 63C425.537 47.8419 425.158 47.4656 410 47C425.158 46.5368 425.534 46.1581 426 31C426.463 46.1581 426.842 46.5344 442 47C426.842 47.4656 426.466 47.8373 426 63Z" fill="#CE0019"/>
</g>
</g>
<defs>
<clipPath id="clip0_360_162">
<rect width="32" height="32" fill="white" transform="translate(410 31)"/>
</clipPath>
</defs>
</svg>
