<svg width="150" height="150" viewBox="0 0 150 150" fill="none" xmlns="http://www.w3.org/2000/svg">
<path d="M129.211 58.2422C119.472 43.5184 106.89 30.8884 92.2029 21.0938C90.5836 20.0159 88.6691 19.4684 86.7247 19.5272C84.7804 19.586 82.9025 20.2482 81.3513 21.4219C68.8435 30.4143 58.3403 41.9071 50.5075 55.1719C49.851 56.3202 49.441 57.5927 49.3038 58.9082C49.1666 60.2238 49.3052 61.5535 49.7107 62.8125L54.9138 78.7032L23.7654 109.969C21.6297 112.039 20.3338 114.825 20.1261 117.793C19.9185 120.76 20.8138 123.699 22.6404 126.047C23.6787 127.311 24.9701 128.343 26.4314 129.078C27.8927 129.812 29.4916 130.233 31.1253 130.312C32.7589 130.392 34.3911 130.128 35.9168 129.539C37.4425 128.95 38.828 128.048 39.9841 126.891L71.4841 95.4141L87.5154 100.781C88.8319 101.232 90.2321 101.383 91.6145 101.225C92.9968 101.067 94.3267 100.603 95.5075 99.8672C108.23 91.6738 119.462 81.3697 128.718 69.3985C129.986 67.8376 130.718 65.9105 130.807 63.9016C130.895 61.8928 130.336 59.9087 129.211 58.2422Z" stroke="white" stroke-width="5" stroke-linecap="round" stroke-linejoin="round"/>
<path d="M101.316 58.9535C104.062 56.2077 104.062 51.7557 101.316 49.0098C98.5701 46.264 94.1181 46.264 91.3722 49.0098C88.6264 51.7557 88.6264 56.2077 91.3722 58.9535C94.1181 61.6994 98.5701 61.6994 101.316 58.9535Z" stroke="white" stroke-width="5" stroke-linecap="round" stroke-linejoin="round"/>
<path d="M30.0469 116.953L61.5234 85.4531" stroke="white" stroke-width="5" stroke-linecap="round" stroke-linejoin="round"/>
</svg>
