<svg width="150" height="150" viewBox="0 0 150 150" fill="none" xmlns="http://www.w3.org/2000/svg">
<path d="M37.5 133.594H32.8125V138.281H37.5V133.594Z" fill="white"/>
<mask id="path-2-inside-1_179_3181" fill="white">
<path d="M136.786 110.297L128.906 108.326V104.85C131.906 102.752 134.175 99.6797 135.246 96.0938H137.109C141.633 96.0938 145.312 92.4141 145.312 87.8906C145.312 84.6305 143.386 81.832 140.625 80.5102V72.6562C140.625 68.2102 137.515 64.4789 133.355 63.5203C132.396 59.3602 128.662 56.25 124.219 56.25H112.5C104.745 56.25 98.4375 62.557 98.4375 70.3125V80.5102C95.6766 81.832 93.75 84.6305 93.75 87.8906C93.75 92.4141 97.4297 96.0938 101.953 96.0938H103.816C104.887 99.682 107.156 102.752 110.156 104.85V108.326L102.277 110.295C95.8758 111.898 91.4062 117.621 91.4062 124.219L91.4039 145.312C91.4039 145.934 91.65 146.531 92.0906 146.97C92.5312 147.408 93.1242 147.656 93.7477 147.656H145.312C146.609 147.656 147.656 146.606 147.656 145.312V124.219C147.656 117.621 143.187 111.898 136.786 110.297ZM112.406 112.596L115.193 113.524L112.5 116.217L109.584 113.302L112.406 112.596ZM119.309 124.219H119.754L121.629 142.969H117.434L119.309 124.219ZM120.621 119.531H118.441L117.389 117.954L119.531 115.814L121.671 117.954L120.621 119.531ZM126.562 116.217L123.87 113.524L126.656 112.596L129.478 113.302L126.562 116.217ZM137.109 91.4062H135.938V84.375H137.109C139.048 84.375 140.625 85.9523 140.625 87.8906C140.625 89.8289 139.048 91.4062 137.109 91.4062ZM103.125 70.3125C103.125 65.1422 107.33 60.9375 112.5 60.9375H124.219C126.804 60.9375 128.906 63.0398 128.906 65.625C128.906 66.9187 129.954 67.9688 131.25 67.9688C133.835 67.9688 135.938 70.0711 135.938 72.6562V79.6875C135.938 79.0664 135.691 78.4688 135.251 78.0305L128.22 70.9992C127.725 70.5047 127.05 70.2516 126.33 70.3242C125.632 70.3922 125.002 70.7719 124.612 71.3555C122.114 75.1055 117.93 77.3438 113.426 77.3438H105.469C104.173 77.3438 103.125 78.3938 103.125 79.6875V70.3125ZM101.953 91.4062C100.015 91.4062 98.4375 89.8289 98.4375 87.8906C98.4375 85.9523 100.015 84.375 101.953 84.375H103.125V91.4062H101.953ZM107.812 91.4062V82.0312H113.426C118.552 82.0312 123.366 79.8844 126.769 76.1766L131.25 80.6578V91.4062C131.25 97.868 125.993 103.125 119.531 103.125C113.07 103.125 107.812 97.868 107.812 91.4062ZM119.531 107.812C121.16 107.812 122.733 107.566 124.219 107.121V108.466L119.531 110.03L114.844 108.466V107.121C116.33 107.566 117.902 107.812 119.531 107.812ZM96.0938 124.219C96.0938 119.775 99.1031 115.922 103.411 114.844L104.28 114.626L110.843 121.188C111.3 121.645 111.9 121.875 112.5 121.875C113.034 121.875 113.555 121.664 113.988 121.301L114.773 122.477L112.723 142.969H105.469V128.906H100.781V142.969H96.0914L96.0938 124.219ZM142.969 142.969H138.281V128.906H133.594V142.969H126.34L124.291 122.477L125.077 121.301C125.508 121.664 126.028 121.875 126.562 121.875C127.162 121.875 127.763 121.645 128.22 121.188L134.782 114.626L135.652 114.844C139.959 115.922 142.969 119.775 142.969 124.219V142.969ZM4.6875 93.75H56.25C57.5461 93.75 58.5938 92.7 58.5938 91.4062V70.3125C58.5938 63.7148 54.1242 57.9914 47.7234 56.3906L39.8438 54.4195V50.9437C42.8438 48.8461 45.1125 45.7734 46.1836 42.1875H48.0469C52.5703 42.1875 56.25 38.5078 56.25 33.9844C56.25 30.7242 54.3234 27.9258 51.5625 26.6039V23.4375C51.5625 11.8078 42.1008 2.34375 30.4688 2.34375C18.8367 2.34375 9.375 11.8078 9.375 23.4375V26.6039C6.61406 27.9258 4.6875 30.7242 4.6875 33.9844C4.6875 38.5078 8.36719 42.1875 12.8906 42.1875H14.7539C15.825 45.7758 18.0938 48.8461 21.0938 50.9437V54.4195L13.2141 56.3883C6.81328 57.9914 2.34375 63.7148 2.34375 70.3125V91.4062C2.34375 92.7 3.39141 93.75 4.6875 93.75ZM23.3438 58.6898L26.1305 59.618L23.4375 62.3109L20.5219 59.3953L23.3438 58.6898ZM37.5938 58.6898L40.4156 59.3953L37.5 62.3109L34.807 59.618L37.5938 58.6898ZM30.4688 61.9078L32.6086 64.0477L31.5586 65.625H29.3789L28.3266 64.0477L30.4688 61.9078ZM30.2461 70.3125H30.6914L32.5664 89.0625H28.3711L30.2461 70.3125ZM53.9062 70.3125V89.0625H49.2188V75H44.5312V89.0625H37.2773L35.2289 68.5711L36.0141 67.3945C36.4453 67.7578 36.9656 67.9688 37.5 67.9688C38.1 67.9688 38.7 67.7391 39.157 67.282L45.7195 60.7195L46.5891 60.9375C50.8969 62.0156 53.9062 65.8688 53.9062 70.3125ZM48.0469 37.5H46.875V30.4688H48.0469C49.9852 30.4688 51.5625 32.0461 51.5625 33.9844C51.5625 35.9227 49.9852 37.5 48.0469 37.5ZM30.4688 7.03125C39.5133 7.03125 46.875 14.3906 46.875 23.4375V25.7812H46.8469C46.6945 21.8813 43.4953 18.75 39.5602 18.75C37.6336 18.75 35.7492 19.5305 34.3875 20.8922L32.8125 22.4648C31.5586 23.7188 29.3789 23.7188 28.125 22.4648L26.55 20.8898C25.1883 19.5305 23.3039 18.75 21.3773 18.75C17.4422 18.75 14.243 21.8813 14.0906 25.7812H14.0625V23.4375C14.0625 14.3906 21.4242 7.03125 30.4688 7.03125ZM12.8906 37.5C10.9523 37.5 9.375 35.9227 9.375 33.9844C9.375 32.0461 10.9523 30.4688 12.8906 30.4688H14.0625V37.5H12.8906ZM18.75 37.5V26.0648C18.75 24.6164 19.9289 23.4375 21.3773 23.4375C22.0688 23.4375 22.7461 23.7188 23.2359 24.2062L24.8109 25.7812C27.8367 28.8023 33.1008 28.8047 36.1266 25.7812L37.7016 24.2062C38.1914 23.7188 38.8687 23.4375 39.5602 23.4375C41.0086 23.4375 42.1875 24.6164 42.1875 26.0648V37.5C42.1875 43.9617 36.9305 49.2188 30.4688 49.2188C24.007 49.2188 18.75 43.9617 18.75 37.5ZM30.4688 53.9062C32.0977 53.9062 33.6703 53.6602 35.1562 53.2148V54.5602L30.4688 56.1234L25.7812 54.5602V53.2148C27.2672 53.6602 28.8398 53.9062 30.4688 53.9062ZM7.03125 70.3125C7.03125 65.8688 10.0406 62.0156 14.3484 60.9375L15.218 60.7195L21.7805 67.282C22.2375 67.7391 22.8375 67.9688 23.4375 67.9688C23.9719 67.9688 24.4922 67.7578 24.9258 67.3945L25.7109 68.5711L23.6602 89.0625H16.4062V75H11.7188V89.0625H7.03125V70.3125ZM58.5938 105.469H32.8125V110.156H60.9375C62.2336 110.156 63.2812 109.106 63.2812 107.812V104.095L81.0609 121.875L63.2812 139.655V135.938C63.2812 134.644 62.2336 133.594 60.9375 133.594H42.1875V138.281H58.5938V145.312C58.5938 146.259 59.1633 147.115 60.0398 147.478C60.3305 147.598 60.6352 147.656 60.9375 147.656C61.5469 147.656 62.1469 147.417 62.5945 146.97L86.032 123.532C86.9484 122.616 86.9484 121.134 86.032 120.218L62.5945 96.7805C61.9242 96.1102 60.9164 95.9109 60.0398 96.2719C59.1633 96.6352 58.5938 97.4906 58.5938 98.4375V105.469ZM85.0617 53.2195C85.5094 53.6672 86.1094 53.9062 86.7188 53.9062C87.0211 53.9062 87.3258 53.8477 87.6164 53.7281C88.493 53.3648 89.0625 52.5094 89.0625 51.5625V44.5312H114.844V39.8438H86.7188C85.4227 39.8438 84.375 40.8937 84.375 42.1875V45.9047L66.5953 28.125L84.375 10.3453V14.0625C84.375 15.3562 85.4227 16.4062 86.7188 16.4062H105.469V11.7188H89.0625V4.6875C89.0625 3.74063 88.493 2.88516 87.6164 2.52187C86.7398 2.16094 85.732 2.36016 85.0617 3.03047L61.6242 26.468C60.7078 27.3844 60.7078 28.8656 61.6242 29.782L85.0617 53.2195Z"/>
</mask>
<path d="M136.786 110.297L128.906 108.326V104.85C131.906 102.752 134.175 99.6797 135.246 96.0938H137.109C141.633 96.0938 145.312 92.4141 145.312 87.8906C145.312 84.6305 143.386 81.832 140.625 80.5102V72.6562C140.625 68.2102 137.515 64.4789 133.355 63.5203C132.396 59.3602 128.662 56.25 124.219 56.25H112.5C104.745 56.25 98.4375 62.557 98.4375 70.3125V80.5102C95.6766 81.832 93.75 84.6305 93.75 87.8906C93.75 92.4141 97.4297 96.0938 101.953 96.0938H103.816C104.887 99.682 107.156 102.752 110.156 104.85V108.326L102.277 110.295C95.8758 111.898 91.4062 117.621 91.4062 124.219L91.4039 145.312C91.4039 145.934 91.65 146.531 92.0906 146.97C92.5312 147.408 93.1242 147.656 93.7477 147.656H145.312C146.609 147.656 147.656 146.606 147.656 145.312V124.219C147.656 117.621 143.187 111.898 136.786 110.297ZM112.406 112.596L115.193 113.524L112.5 116.217L109.584 113.302L112.406 112.596ZM119.309 124.219H119.754L121.629 142.969H117.434L119.309 124.219ZM120.621 119.531H118.441L117.389 117.954L119.531 115.814L121.671 117.954L120.621 119.531ZM126.562 116.217L123.87 113.524L126.656 112.596L129.478 113.302L126.562 116.217ZM137.109 91.4062H135.938V84.375H137.109C139.048 84.375 140.625 85.9523 140.625 87.8906C140.625 89.8289 139.048 91.4062 137.109 91.4062ZM103.125 70.3125C103.125 65.1422 107.33 60.9375 112.5 60.9375H124.219C126.804 60.9375 128.906 63.0398 128.906 65.625C128.906 66.9187 129.954 67.9688 131.25 67.9688C133.835 67.9688 135.938 70.0711 135.938 72.6562V79.6875C135.938 79.0664 135.691 78.4688 135.251 78.0305L128.22 70.9992C127.725 70.5047 127.05 70.2516 126.33 70.3242C125.632 70.3922 125.002 70.7719 124.612 71.3555C122.114 75.1055 117.93 77.3438 113.426 77.3438H105.469C104.173 77.3438 103.125 78.3938 103.125 79.6875V70.3125ZM101.953 91.4062C100.015 91.4062 98.4375 89.8289 98.4375 87.8906C98.4375 85.9523 100.015 84.375 101.953 84.375H103.125V91.4062H101.953ZM107.812 91.4062V82.0312H113.426C118.552 82.0312 123.366 79.8844 126.769 76.1766L131.25 80.6578V91.4062C131.25 97.868 125.993 103.125 119.531 103.125C113.07 103.125 107.812 97.868 107.812 91.4062ZM119.531 107.812C121.16 107.812 122.733 107.566 124.219 107.121V108.466L119.531 110.03L114.844 108.466V107.121C116.33 107.566 117.902 107.812 119.531 107.812ZM96.0938 124.219C96.0938 119.775 99.1031 115.922 103.411 114.844L104.28 114.626L110.843 121.188C111.3 121.645 111.9 121.875 112.5 121.875C113.034 121.875 113.555 121.664 113.988 121.301L114.773 122.477L112.723 142.969H105.469V128.906H100.781V142.969H96.0914L96.0938 124.219ZM142.969 142.969H138.281V128.906H133.594V142.969H126.34L124.291 122.477L125.077 121.301C125.508 121.664 126.028 121.875 126.562 121.875C127.162 121.875 127.763 121.645 128.22 121.188L134.782 114.626L135.652 114.844C139.959 115.922 142.969 119.775 142.969 124.219V142.969ZM4.6875 93.75H56.25C57.5461 93.75 58.5938 92.7 58.5938 91.4062V70.3125C58.5938 63.7148 54.1242 57.9914 47.7234 56.3906L39.8438 54.4195V50.9437C42.8438 48.8461 45.1125 45.7734 46.1836 42.1875H48.0469C52.5703 42.1875 56.25 38.5078 56.25 33.9844C56.25 30.7242 54.3234 27.9258 51.5625 26.6039V23.4375C51.5625 11.8078 42.1008 2.34375 30.4688 2.34375C18.8367 2.34375 9.375 11.8078 9.375 23.4375V26.6039C6.61406 27.9258 4.6875 30.7242 4.6875 33.9844C4.6875 38.5078 8.36719 42.1875 12.8906 42.1875H14.7539C15.825 45.7758 18.0938 48.8461 21.0938 50.9437V54.4195L13.2141 56.3883C6.81328 57.9914 2.34375 63.7148 2.34375 70.3125V91.4062C2.34375 92.7 3.39141 93.75 4.6875 93.75ZM23.3438 58.6898L26.1305 59.618L23.4375 62.3109L20.5219 59.3953L23.3438 58.6898ZM37.5938 58.6898L40.4156 59.3953L37.5 62.3109L34.807 59.618L37.5938 58.6898ZM30.4688 61.9078L32.6086 64.0477L31.5586 65.625H29.3789L28.3266 64.0477L30.4688 61.9078ZM30.2461 70.3125H30.6914L32.5664 89.0625H28.3711L30.2461 70.3125ZM53.9062 70.3125V89.0625H49.2188V75H44.5312V89.0625H37.2773L35.2289 68.5711L36.0141 67.3945C36.4453 67.7578 36.9656 67.9688 37.5 67.9688C38.1 67.9688 38.7 67.7391 39.157 67.282L45.7195 60.7195L46.5891 60.9375C50.8969 62.0156 53.9062 65.8688 53.9062 70.3125ZM48.0469 37.5H46.875V30.4688H48.0469C49.9852 30.4688 51.5625 32.0461 51.5625 33.9844C51.5625 35.9227 49.9852 37.5 48.0469 37.5ZM30.4688 7.03125C39.5133 7.03125 46.875 14.3906 46.875 23.4375V25.7812H46.8469C46.6945 21.8813 43.4953 18.75 39.5602 18.75C37.6336 18.75 35.7492 19.5305 34.3875 20.8922L32.8125 22.4648C31.5586 23.7188 29.3789 23.7188 28.125 22.4648L26.55 20.8898C25.1883 19.5305 23.3039 18.75 21.3773 18.75C17.4422 18.75 14.243 21.8813 14.0906 25.7812H14.0625V23.4375C14.0625 14.3906 21.4242 7.03125 30.4688 7.03125ZM12.8906 37.5C10.9523 37.5 9.375 35.9227 9.375 33.9844C9.375 32.0461 10.9523 30.4688 12.8906 30.4688H14.0625V37.5H12.8906ZM18.75 37.5V26.0648C18.75 24.6164 19.9289 23.4375 21.3773 23.4375C22.0688 23.4375 22.7461 23.7188 23.2359 24.2062L24.8109 25.7812C27.8367 28.8023 33.1008 28.8047 36.1266 25.7812L37.7016 24.2062C38.1914 23.7188 38.8687 23.4375 39.5602 23.4375C41.0086 23.4375 42.1875 24.6164 42.1875 26.0648V37.5C42.1875 43.9617 36.9305 49.2188 30.4688 49.2188C24.007 49.2188 18.75 43.9617 18.75 37.5ZM30.4688 53.9062C32.0977 53.9062 33.6703 53.6602 35.1562 53.2148V54.5602L30.4688 56.1234L25.7812 54.5602V53.2148C27.2672 53.6602 28.8398 53.9062 30.4688 53.9062ZM7.03125 70.3125C7.03125 65.8688 10.0406 62.0156 14.3484 60.9375L15.218 60.7195L21.7805 67.282C22.2375 67.7391 22.8375 67.9688 23.4375 67.9688C23.9719 67.9688 24.4922 67.7578 24.9258 67.3945L25.7109 68.5711L23.6602 89.0625H16.4062V75H11.7188V89.0625H7.03125V70.3125ZM58.5938 105.469H32.8125V110.156H60.9375C62.2336 110.156 63.2812 109.106 63.2812 107.812V104.095L81.0609 121.875L63.2812 139.655V135.938C63.2812 134.644 62.2336 133.594 60.9375 133.594H42.1875V138.281H58.5938V145.312C58.5938 146.259 59.1633 147.115 60.0398 147.478C60.3305 147.598 60.6352 147.656 60.9375 147.656C61.5469 147.656 62.1469 147.417 62.5945 146.97L86.032 123.532C86.9484 122.616 86.9484 121.134 86.032 120.218L62.5945 96.7805C61.9242 96.1102 60.9164 95.9109 60.0398 96.2719C59.1633 96.6352 58.5938 97.4906 58.5938 98.4375V105.469ZM85.0617 53.2195C85.5094 53.6672 86.1094 53.9062 86.7188 53.9062C87.0211 53.9062 87.3258 53.8477 87.6164 53.7281C88.493 53.3648 89.0625 52.5094 89.0625 51.5625V44.5312H114.844V39.8438H86.7188C85.4227 39.8438 84.375 40.8937 84.375 42.1875V45.9047L66.5953 28.125L84.375 10.3453V14.0625C84.375 15.3562 85.4227 16.4062 86.7188 16.4062H105.469V11.7188H89.0625V4.6875C89.0625 3.74063 88.493 2.88516 87.6164 2.52187C86.7398 2.16094 85.732 2.36016 85.0617 3.03047L61.6242 26.468C60.7078 27.3844 60.7078 28.8656 61.6242 29.782L85.0617 53.2195Z" fill="white" stroke="black" stroke-width="1.2" mask="url(#path-2-inside-1_179_3181)"/>
<path d="M114.844 11.7188H110.156V16.4062H114.844V11.7188Z" fill="white"/>
</svg>
