<svg width="150" height="150" viewBox="0 0 150 150" fill="none" xmlns="http://www.w3.org/2000/svg">
<path d="M18.0578 83.1504L18.0578 83.1504L17.0966 84.1104C17.0966 84.1104 17.0966 84.1104 17.0966 84.1104C15.8845 85.321 15.8845 87.2815 17.0964 88.4921C18.311 89.7061 20.2823 89.7061 21.497 88.4924C21.4971 88.4923 21.4972 88.4922 21.4973 88.4922L32.0704 77.9324L32.0705 77.9323C33.5114 76.4927 35.8461 76.4942 37.2853 77.9352C38.7245 79.3764 38.723 81.7114 37.2821 83.1504L37.2821 83.1504L26.7088 93.711C26.7088 93.711 26.7087 93.7111 26.7087 93.7111C22.6147 97.7999 15.9789 97.7999 11.8849 93.7111C7.78835 89.6192 7.78842 82.9836 11.8848 78.8924C11.8848 78.8924 11.8848 78.8924 11.8848 78.8924L12.8461 77.9324L12.8462 77.9323C14.2871 76.4927 16.6218 76.4942 18.061 77.9352C19.5002 79.3764 19.4987 81.7114 18.0578 83.1504Z" fill="white" stroke="#222537" stroke-width="2"/>
<path d="M43.1847 84.1626L43.1848 84.1626C44.6248 82.7225 46.9595 82.7225 48.3996 84.1626C49.8397 85.6027 49.8397 87.937 48.3997 89.3771C48.3996 89.3771 48.3996 89.3771 48.3996 89.3771L35.169 102.608L35.169 102.608C33.7289 104.048 31.3942 104.048 29.9541 102.608C28.514 101.168 28.514 98.8333 29.9541 97.3932C29.9541 97.3932 29.9541 97.3932 29.9541 97.3932L43.1847 84.1626Z" fill="white" stroke="#222537" stroke-width="2"/>
<path d="M52.6075 119.845L52.6074 119.845C51.1674 121.285 48.8326 121.285 47.3925 119.845C45.9525 118.405 45.9525 116.07 47.3925 114.63L60.5327 101.49L60.5327 101.49C61.9728 100.05 64.3078 100.05 65.7479 101.49C67.188 102.93 67.188 105.265 65.7479 106.705L52.6075 119.845Z" fill="white" stroke="#222537" stroke-width="2"/>
<path d="M45.9861 103.956L45.9862 103.956C47.4101 105.412 47.3842 107.746 45.9282 109.17L45.9281 109.17L35.2433 119.62C35.2433 119.62 35.2433 119.62 35.2433 119.62C33.7874 121.044 31.4527 121.018 30.0287 119.562L30.0287 119.562C28.6048 118.106 28.6308 115.771 30.0867 114.348L30.0868 114.348L40.7716 103.898L40.7717 103.898C42.2277 102.474 44.5622 102.5 45.9861 103.956Z" fill="white" stroke="#222537" stroke-width="2"/>
<path d="M71.832 112.746L71.8321 112.746C73.2718 114.187 73.2702 116.522 71.8292 117.961L71.8292 117.961L61.2558 128.521C60.0436 129.732 60.0436 131.693 61.2558 132.903C62.4704 134.117 64.4415 134.116 65.6562 132.903L65.6562 132.903L66.6175 131.943C68.0586 130.504 70.3929 130.506 71.832 131.947L71.8323 131.947C73.2717 133.387 73.2703 135.722 71.8292 137.161L71.8292 137.161L70.8679 138.121L70.8679 138.121C66.7739 142.211 60.1381 142.211 56.0441 138.121L56.044 138.121C51.9476 134.03 51.9475 127.395 56.044 123.303C56.044 123.303 56.044 123.303 56.0441 123.303L66.6175 112.743C68.0588 111.303 70.3931 111.305 71.832 112.746Z" fill="white" stroke="#222537" stroke-width="2"/>
<mask id="path-6-inside-1_179_3114" fill="white">
<path fill-rule="evenodd" clip-rule="evenodd" d="M112.45 7.81283L113.286 7.81321H116.693C121.403 7.81302 125.4 7.81283 128.589 8.23971C131.981 8.69383 135.151 9.70665 137.715 12.2593C140.281 14.8146 141.301 17.9797 141.759 21.3668C142.188 24.5457 142.188 28.5296 142.188 33.2166V36.6133L142.188 37.4503C142.191 43.0814 142.195 47.2049 140.622 50.9841C139.051 54.7613 136.124 57.6723 132.123 61.6517L131.528 62.2431L117.366 76.3456L117.611 76.7244C119.742 80.0106 121.487 82.7025 122.75 85.03C124.065 87.4531 125.021 89.765 125.405 92.3431C126.016 96.4431 125.463 100.654 123.848 104.518C123.232 105.992 122.181 107.507 121.139 108.849C120.04 110.265 118.701 111.801 117.272 113.357C114.428 116.451 111.018 119.847 108.002 122.851L107.958 122.894L107.501 123.349C103.286 127.546 95.9752 126.196 93.7196 120.545C92.4765 117.431 91.9909 116.235 91.3865 115.134C90.8209 114.105 90.1727 113.123 89.4471 112.199C88.6821 111.224 87.7871 110.318 85.4865 108.027L82.8427 105.712C82.399 105.759 81.9496 105.783 81.4934 105.783C77.8752 105.783 74.9152 104.269 72.1902 102.199C69.6309 100.255 66.8034 97.4394 63.4746 94.1238L55.5595 86.2419C52.2304 82.9275 49.4025 80.1113 47.4496 77.5631C45.3709 74.85 43.8429 71.8925 43.8429 68.2713C43.8429 67.725 43.8779 67.1888 43.9461 66.6619L39.6494 62.383C39.385 62.1198 39.2829 62.0183 39.1825 61.921C37.2065 60.006 34.8812 58.4826 32.3305 57.433C32.201 57.3796 32.0669 57.3265 31.7194 57.189L29.6605 56.3741C23.7438 54.0325 22.1431 46.3959 26.6678 41.8904L26.7114 41.8469C29.7279 38.8431 33.1382 35.4473 36.2457 32.616C37.8082 31.1923 39.35 29.8598 40.7712 28.7658C42.1199 27.7275 43.6388 26.683 45.1144 26.0715C48.9875 24.4665 53.2054 23.9181 57.3115 24.5242C59.8915 24.905 62.208 25.8545 64.6396 27.1632C66.9765 28.4208 69.679 30.1581 72.9802 32.2803L73.3909 32.5443L87.5752 18.4195L88.1665 17.8308C92.1659 13.8429 95.0871 10.9304 98.8746 9.36808C102.66 7.80665 106.79 7.80927 112.45 7.81283ZM110.576 83.1075C112.334 85.8269 113.596 87.8175 114.511 89.5025C115.547 91.4119 115.971 92.6394 116.133 93.7238C116.484 96.0819 116.174 98.5681 115.198 100.903C115.08 101.186 114.666 101.899 113.734 103.101C112.858 104.228 111.712 105.551 110.368 107.013C107.837 109.768 104.789 112.819 101.885 115.712C101.022 113.561 100.392 112.057 99.604 110.621C98.7927 109.145 97.8627 107.737 96.8227 106.411C95.6496 104.916 94.3077 103.581 92.2034 101.486L91.9771 101.26C92.1877 101.084 92.3977 100.906 92.6071 100.726C94.6677 98.9488 96.9752 96.6506 99.6284 94.0088L110.576 83.1075ZM113.286 17.1882C106.43 17.1882 104.302 17.2706 102.45 18.0348C100.599 18.7981 99.039 20.2346 94.1909 25.0626L62.3986 56.7208C59.683 59.4248 57.6454 61.4573 56.1142 63.2025C54.5745 64.9575 53.8346 66.1088 53.4875 66.9713C53.2898 67.4619 53.2179 67.8663 53.2179 68.2713C53.2179 69.0063 53.4499 69.9794 54.8914 71.8613C56.4151 73.8494 58.7843 76.2231 62.3986 79.8219L62.8246 80.2463L70.7184 72.3856C72.5527 70.5594 75.5209 70.5656 77.3477 72.4C79.1746 74.2344 79.1684 77.2025 77.3334 79.0288L69.4677 86.8619L69.8659 87.2581C73.4802 90.8569 75.864 93.2163 77.8615 94.7344C79.7502 96.1694 80.7371 96.4081 81.4934 96.4081C81.8802 96.4081 82.2577 96.345 82.6971 96.1831C83.5484 95.87 84.699 95.1669 86.4834 93.6275C88.2609 92.0944 90.3352 90.0325 93.1215 87.2581L124.913 55.6C129.764 50.7697 131.203 49.2193 131.966 47.3835C132.729 45.5498 132.813 43.4448 132.813 36.6133V33.5331C132.813 28.4427 132.803 25.0984 132.468 22.6212C132.152 20.2809 131.626 19.4271 131.1 18.9024C130.57 18.3749 129.705 17.8477 127.345 17.5318C124.852 17.1981 121.489 17.1882 116.379 17.1882H113.286ZM114.671 35.2055C108.718 29.2774 99.0746 29.2774 93.1215 35.2055C87.1571 41.1445 87.1571 50.7818 93.1215 56.7208C99.0746 62.6488 108.718 62.6488 114.671 56.7208C120.635 50.7818 120.635 41.1445 114.671 35.2055ZM99.7365 41.8486C102.031 39.563 105.761 39.563 108.056 41.8486C110.341 44.1233 110.341 47.803 108.056 50.0776C105.761 52.3632 102.031 52.3632 99.7365 50.0776C97.4521 47.803 97.4521 44.1233 99.7365 41.8486ZM66.589 39.3176C63.8746 37.5773 61.8834 36.3262 60.1969 35.4186C58.2777 34.3856 57.0398 33.9607 55.9425 33.7987C53.5626 33.4475 51.0557 33.7575 48.7035 34.7323C48.4143 34.8521 47.6955 35.2664 46.49 36.1945C45.357 37.0666 44.0281 38.208 42.5598 39.5458C39.8057 42.0553 36.7577 45.0746 33.8638 47.9551L35.1693 48.4718L35.2007 48.4842C35.5075 48.6056 35.703 48.683 35.8982 48.7633C39.5467 50.2647 42.8758 52.4451 45.7069 55.1887C45.8588 55.3359 46.0081 55.4846 46.2431 55.7186L48.3681 57.8347C48.5965 57.5616 48.8298 57.2901 49.0669 57.0198C50.8303 55.0099 53.0906 52.7591 55.683 50.1777L66.589 39.3176Z"/>
</mask>
<path fill-rule="evenodd" clip-rule="evenodd" d="M112.45 7.81283L113.286 7.81321H116.693C121.403 7.81302 125.4 7.81283 128.589 8.23971C131.981 8.69383 135.151 9.70665 137.715 12.2593C140.281 14.8146 141.301 17.9797 141.759 21.3668C142.188 24.5457 142.188 28.5296 142.188 33.2166V36.6133L142.188 37.4503C142.191 43.0814 142.195 47.2049 140.622 50.9841C139.051 54.7613 136.124 57.6723 132.123 61.6517L131.528 62.2431L117.366 76.3456L117.611 76.7244C119.742 80.0106 121.487 82.7025 122.75 85.03C124.065 87.4531 125.021 89.765 125.405 92.3431C126.016 96.4431 125.463 100.654 123.848 104.518C123.232 105.992 122.181 107.507 121.139 108.849C120.04 110.265 118.701 111.801 117.272 113.357C114.428 116.451 111.018 119.847 108.002 122.851L107.958 122.894L107.501 123.349C103.286 127.546 95.9752 126.196 93.7196 120.545C92.4765 117.431 91.9909 116.235 91.3865 115.134C90.8209 114.105 90.1727 113.123 89.4471 112.199C88.6821 111.224 87.7871 110.318 85.4865 108.027L82.8427 105.712C82.399 105.759 81.9496 105.783 81.4934 105.783C77.8752 105.783 74.9152 104.269 72.1902 102.199C69.6309 100.255 66.8034 97.4394 63.4746 94.1238L55.5595 86.2419C52.2304 82.9275 49.4025 80.1113 47.4496 77.5631C45.3709 74.85 43.8429 71.8925 43.8429 68.2713C43.8429 67.725 43.8779 67.1888 43.9461 66.6619L39.6494 62.383C39.385 62.1198 39.2829 62.0183 39.1825 61.921C37.2065 60.006 34.8812 58.4826 32.3305 57.433C32.201 57.3796 32.0669 57.3265 31.7194 57.189L29.6605 56.3741C23.7438 54.0325 22.1431 46.3959 26.6678 41.8904L26.7114 41.8469C29.7279 38.8431 33.1382 35.4473 36.2457 32.616C37.8082 31.1923 39.35 29.8598 40.7712 28.7658C42.1199 27.7275 43.6388 26.683 45.1144 26.0715C48.9875 24.4665 53.2054 23.9181 57.3115 24.5242C59.8915 24.905 62.208 25.8545 64.6396 27.1632C66.9765 28.4208 69.679 30.1581 72.9802 32.2803L73.3909 32.5443L87.5752 18.4195L88.1665 17.8308C92.1659 13.8429 95.0871 10.9304 98.8746 9.36808C102.66 7.80665 106.79 7.80927 112.45 7.81283ZM110.576 83.1075C112.334 85.8269 113.596 87.8175 114.511 89.5025C115.547 91.4119 115.971 92.6394 116.133 93.7238C116.484 96.0819 116.174 98.5681 115.198 100.903C115.08 101.186 114.666 101.899 113.734 103.101C112.858 104.228 111.712 105.551 110.368 107.013C107.837 109.768 104.789 112.819 101.885 115.712C101.022 113.561 100.392 112.057 99.604 110.621C98.7927 109.145 97.8627 107.737 96.8227 106.411C95.6496 104.916 94.3077 103.581 92.2034 101.486L91.9771 101.26C92.1877 101.084 92.3977 100.906 92.6071 100.726C94.6677 98.9488 96.9752 96.6506 99.6284 94.0088L110.576 83.1075ZM113.286 17.1882C106.43 17.1882 104.302 17.2706 102.45 18.0348C100.599 18.7981 99.039 20.2346 94.1909 25.0626L62.3986 56.7208C59.683 59.4248 57.6454 61.4573 56.1142 63.2025C54.5745 64.9575 53.8346 66.1088 53.4875 66.9713C53.2898 67.4619 53.2179 67.8663 53.2179 68.2713C53.2179 69.0063 53.4499 69.9794 54.8914 71.8613C56.4151 73.8494 58.7843 76.2231 62.3986 79.8219L62.8246 80.2463L70.7184 72.3856C72.5527 70.5594 75.5209 70.5656 77.3477 72.4C79.1746 74.2344 79.1684 77.2025 77.3334 79.0288L69.4677 86.8619L69.8659 87.2581C73.4802 90.8569 75.864 93.2163 77.8615 94.7344C79.7502 96.1694 80.7371 96.4081 81.4934 96.4081C81.8802 96.4081 82.2577 96.345 82.6971 96.1831C83.5484 95.87 84.699 95.1669 86.4834 93.6275C88.2609 92.0944 90.3352 90.0325 93.1215 87.2581L124.913 55.6C129.764 50.7697 131.203 49.2193 131.966 47.3835C132.729 45.5498 132.813 43.4448 132.813 36.6133V33.5331C132.813 28.4427 132.803 25.0984 132.468 22.6212C132.152 20.2809 131.626 19.4271 131.1 18.9024C130.57 18.3749 129.705 17.8477 127.345 17.5318C124.852 17.1981 121.489 17.1882 116.379 17.1882H113.286ZM114.671 35.2055C108.718 29.2774 99.0746 29.2774 93.1215 35.2055C87.1571 41.1445 87.1571 50.7818 93.1215 56.7208C99.0746 62.6488 108.718 62.6488 114.671 56.7208C120.635 50.7818 120.635 41.1445 114.671 35.2055ZM99.7365 41.8486C102.031 39.563 105.761 39.563 108.056 41.8486C110.341 44.1233 110.341 47.803 108.056 50.0776C105.761 52.3632 102.031 52.3632 99.7365 50.0776C97.4521 47.803 97.4521 44.1233 99.7365 41.8486ZM66.589 39.3176C63.8746 37.5773 61.8834 36.3262 60.1969 35.4186C58.2777 34.3856 57.0398 33.9607 55.9425 33.7987C53.5626 33.4475 51.0557 33.7575 48.7035 34.7323C48.4143 34.8521 47.6955 35.2664 46.49 36.1945C45.357 37.0666 44.0281 38.208 42.5598 39.5458C39.8057 42.0553 36.7577 45.0746 33.8638 47.9551L35.1693 48.4718L35.2007 48.4842C35.5075 48.6056 35.703 48.683 35.8982 48.7633C39.5467 50.2647 42.8758 52.4451 45.7069 55.1887C45.8588 55.3359 46.0081 55.4846 46.2431 55.7186L48.3681 57.8347C48.5965 57.5616 48.8298 57.2901 49.0669 57.0198C50.8303 55.0099 53.0906 52.7591 55.683 50.1777L66.589 39.3176Z" fill="white" stroke="#222537" stroke-width="4" mask="url(#path-6-inside-1_179_3114)"/>
</svg>
