<svg width="60" height="60" viewBox="0 0 60 60" fill="none" xmlns="http://www.w3.org/2000/svg">
<circle opacity="0.06" cx="30" cy="30" r="30" fill="white"/>
<circle cx="30" cy="30" r="15.5" stroke="white"/>
<path d="M38.5 30C38.5 34.3487 37.5074 38.261 35.9282 41.0686C34.3401 43.8918 32.2244 45.5 30 45.5C27.7756 45.5 25.6599 43.8918 24.0718 41.0686C22.4926 38.261 21.5 34.3487 21.5 30C21.5 25.6513 22.4926 21.739 24.0718 18.9314C25.6599 16.1082 27.7756 14.5 30 14.5C32.2244 14.5 34.3401 16.1082 35.9282 18.9314C37.5074 21.739 38.5 25.6513 38.5 30Z" stroke="white"/>
<path d="M30.5601 14.3198V45.4398" stroke="white"/>
<path d="M15.9999 23.04H43.9199M45.8399 29.84H14.3999M16.6399 38.32H42.9599" stroke="white"/>
</svg>
