<svg width="60" height="60" viewBox="0 0 60 60" fill="none" xmlns="http://www.w3.org/2000/svg">
<circle opacity="0.06" cx="30" cy="30" r="30" fill="white"/>
<g clip-path="url(#clip0_270_3874)">
<path fill-rule="evenodd" clip-rule="evenodd" d="M45.36 30.3635C45.36 29.229 45.2582 28.1381 45.0691 27.0908H30V33.2799H38.6109C38.24 35.2799 37.1127 36.9745 35.4182 38.109V42.1235H40.5891C43.6145 39.3381 45.36 35.2363 45.36 30.3635Z" fill="white"/>
<path fill-rule="evenodd" clip-rule="evenodd" d="M30.0003 46C34.3203 46 37.9421 44.5673 40.5894 42.1237L35.4185 38.1091C33.9858 39.0691 32.1531 39.6364 30.0003 39.6364C25.8331 39.6364 22.3058 36.8219 21.0476 33.04H15.7021V37.1855C18.3349 42.4146 23.7458 46 30.0003 46Z" fill="white"/>
<path fill-rule="evenodd" clip-rule="evenodd" d="M21.0473 33.0399C20.7273 32.0799 20.5455 31.0545 20.5455 29.9999C20.5455 28.9454 20.7273 27.9199 21.0473 26.9599V22.8145H15.7018C14.6182 24.9745 14 27.4181 14 29.9999C14 32.5817 14.6182 35.0254 15.7018 37.1854L21.0473 33.0399Z" fill="white"/>
<path fill-rule="evenodd" clip-rule="evenodd" d="M30.0003 20.3636C32.3494 20.3636 34.4585 21.1709 36.1167 22.7564L40.7058 18.1673C37.9349 15.5855 34.3131 14 30.0003 14C23.7458 14 18.3349 17.5855 15.7021 22.8145L21.0476 26.96C22.3058 23.1782 25.8331 20.3636 30.0003 20.3636Z" fill="white"/>
</g>
<defs>
<clipPath id="clip0_270_3874">
<rect width="32" height="32" fill="white" transform="translate(14 14)"/>
</clipPath>
</defs>
</svg>
