<svg width="60" height="60" viewBox="0 0 60 60" fill="none" xmlns="http://www.w3.org/2000/svg">
<circle opacity="0.06" cx="30" cy="30" r="30" fill="white"/>
<g clip-path="url(#clip0_270_3864)">
<path d="M30 16.8837C34.2747 16.8837 34.7765 16.9027 36.4661 16.979C38.0286 17.0488 38.8734 17.3092 39.4387 17.5316C40.1882 17.8237 40.7217 18.1667 41.2807 18.7257C41.8396 19.2846 42.189 19.8182 42.4748 20.5677C42.6908 21.133 42.9575 21.9778 43.0274 23.5403C43.1036 25.2299 43.1227 25.7316 43.1227 30.0064C43.1227 34.2811 43.1036 34.7828 43.0274 36.4724C42.9575 38.0349 42.6971 38.8797 42.4748 39.445C42.1826 40.1945 41.8396 40.7281 41.2807 41.287C40.7217 41.846 40.1882 42.1953 39.4387 42.4811C38.8734 42.6971 38.0286 42.9639 36.4661 43.0337C34.7765 43.11 34.2747 43.129 30 43.129C25.7253 43.129 25.2235 43.11 23.5339 43.0337C21.9714 42.9639 21.1266 42.7035 20.5613 42.4811C19.8118 42.189 19.2783 41.846 18.7193 41.287C18.1604 40.7281 17.811 40.1945 17.5252 39.445C17.3093 38.8797 17.0425 38.0349 16.9726 36.4724C16.8964 34.7828 16.8773 34.2811 16.8773 30.0064C16.8773 25.7316 16.8964 25.2299 16.9726 23.5403C17.0425 21.9778 17.3029 21.133 17.5252 20.5677C17.8174 19.8182 18.1604 19.2846 18.7193 18.7257C19.2783 18.1667 19.8118 17.8174 20.5613 17.5316C21.1266 17.3156 21.9714 17.0488 23.5339 16.979C25.2235 16.8964 25.7316 16.8837 30 16.8837ZM30 14C25.6554 14 25.1092 14.0191 23.4006 14.0953C21.6983 14.1715 20.5359 14.4446 19.5197 14.8384C18.4653 15.2449 17.576 15.7975 16.6868 16.6868C15.7975 17.576 15.2513 18.4716 14.8384 19.5197C14.4446 20.5359 14.1715 21.6983 14.0953 23.4069C14.0191 25.1092 14 25.6554 14 30C14 34.3446 14.0191 34.8908 14.0953 36.5994C14.1715 38.3017 14.4446 39.4641 14.8384 40.4867C15.2449 41.5411 15.7975 42.4303 16.6868 43.3196C17.576 44.2088 18.4716 44.7551 19.5197 45.1679C20.5359 45.5617 21.6983 45.8349 23.4069 45.9111C25.1155 45.9873 25.6554 46.0064 30.0064 46.0064C34.3573 46.0064 34.8972 45.9873 36.6058 45.9111C38.3081 45.8349 39.4704 45.5617 40.4931 45.1679C41.5475 44.7614 42.4367 44.2088 43.3259 43.3196C44.2152 42.4303 44.7614 41.5347 45.1743 40.4867C45.5681 39.4704 45.8412 38.3081 45.9174 36.5994C45.9937 34.8908 46.0127 34.3509 46.0127 30C46.0127 25.6491 45.9937 25.1092 45.9174 23.4006C45.8412 21.6983 45.5681 20.5359 45.1743 19.5133C44.7678 18.4589 44.2152 17.5697 43.3259 16.6804C42.4367 15.7912 41.5411 15.2449 40.4931 14.8321C39.4768 14.4383 38.3144 14.1651 36.6058 14.0889C34.8908 14.0191 34.3446 14 30 14Z" fill="white"/>
<path d="M30 16.8837C34.2747 16.8837 34.7765 16.9027 36.4661 16.979C38.0286 17.0488 38.8734 17.3092 39.4387 17.5316C40.1882 17.8237 40.7217 18.1667 41.2807 18.7257C41.8396 19.2846 42.189 19.8182 42.4748 20.5677C42.6908 21.133 42.9575 21.9778 43.0274 23.5403C43.1036 25.2299 43.1227 25.7316 43.1227 30.0064C43.1227 34.2811 43.1036 34.7828 43.0274 36.4724C42.9575 38.0349 42.6971 38.8797 42.4748 39.445C42.1826 40.1945 41.8396 40.7281 41.2807 41.287C40.7217 41.846 40.1882 42.1953 39.4387 42.4811C38.8734 42.6971 38.0286 42.9639 36.4661 43.0337C34.7765 43.11 34.2747 43.129 30 43.129C25.7253 43.129 25.2235 43.11 23.5339 43.0337C21.9714 42.9639 21.1266 42.7035 20.5613 42.4811C19.8118 42.189 19.2783 41.846 18.7193 41.287C18.1604 40.7281 17.811 40.1945 17.5252 39.445C17.3093 38.8797 17.0425 38.0349 16.9726 36.4724C16.8964 34.7828 16.8773 34.2811 16.8773 30.0064C16.8773 25.7316 16.8964 25.2299 16.9726 23.5403C17.0425 21.9778 17.3029 21.133 17.5252 20.5677C17.8174 19.8182 18.1604 19.2846 18.7193 18.7257C19.2783 18.1667 19.8118 17.8174 20.5613 17.5316C21.1266 17.3156 21.9714 17.0488 23.5339 16.979C25.2235 16.8964 25.7316 16.8837 30 16.8837Z" fill="white"/>
<path d="M30.0004 21.7871C25.4653 21.7871 21.7812 25.4648 21.7812 30.0062C21.7812 34.5477 25.4589 38.2254 30.0004 38.2254C34.5419 38.2254 38.2195 34.5477 38.2195 30.0062C38.2195 25.4648 34.5419 21.7871 30.0004 21.7871ZM30.0004 35.3353C27.0532 35.3353 24.6649 32.9471 24.6649 29.9999C24.6649 27.0527 27.0532 24.6644 30.0004 24.6644C32.9476 24.6644 35.3358 27.0527 35.3358 29.9999C35.3358 32.9471 32.9476 35.3353 30.0004 35.3353Z" fill="#0C0E0D"/>
<path d="M38.5432 23.375C39.6026 23.375 40.4614 22.5162 40.4614 21.4568C40.4614 20.3974 39.6026 19.5386 38.5432 19.5386C37.4838 19.5386 36.625 20.3974 36.625 21.4568C36.625 22.5162 37.4838 23.375 38.5432 23.375Z" fill="#0C0E0D"/>
</g>
<defs>
<clipPath id="clip0_270_3864">
<rect width="32" height="32" fill="white" transform="translate(14 14)"/>
</clipPath>
</defs>
</svg>
