<svg width="60" height="60" viewBox="0 0 60 60" fill="none" xmlns="http://www.w3.org/2000/svg">
<circle opacity="0.06" cx="30" cy="30" r="30" fill="white"/>
<path d="M36.9873 14H31.4628V35.7971C31.4628 38.3942 29.338 40.5276 26.6938 40.5276C24.0496 40.5276 21.9248 38.3942 21.9248 35.7971C21.9248 33.2464 24.0024 31.1594 26.5522 31.0667V25.5942C20.9333 25.6869 16.4004 30.1855 16.4004 35.7971C16.4004 41.4551 21.0277 46 26.7411 46C32.4543 46 37.0816 41.4087 37.0816 35.7971V24.6203C39.1592 26.1044 41.709 26.9855 44.4004 27.0319V21.5594C40.2453 21.4203 36.9873 18.0812 36.9873 14Z" fill="white"/>
</svg>
