<svg width="60" height="60" viewBox="0 0 60 60" fill="none" xmlns="http://www.w3.org/2000/svg">
<circle opacity="0.06" cx="30" cy="30" r="30" fill="white"/>
<path d="M42.0758 23.5745C42.0882 23.8561 42.0882 24.1249 42.0882 24.4065C42.1005 32.9442 35.8279 42.8002 24.3569 42.8002C20.9736 42.8002 17.6521 41.789 14.7998 39.8946C15.2937 39.9586 15.7876 39.9842 16.2815 39.9842C19.0845 39.9842 21.8133 39.0114 24.0235 37.2066C21.3564 37.1554 19.0104 35.3506 18.1954 32.7138C19.1338 32.9058 20.097 32.8674 21.0107 32.5986C18.109 32.0098 16.0222 29.3602 16.0099 26.2753C16.0099 26.2497 16.0099 26.2241 16.0099 26.1985C16.8742 26.6977 17.8497 26.9793 18.8375 27.0049C16.1087 25.1105 15.2567 21.3345 16.9113 18.3777C20.0846 22.4225 24.752 24.8673 29.7652 25.1361C29.2589 22.8961 29.9504 20.5409 31.568 18.9537C34.0745 16.5089 38.0258 16.6369 40.3966 19.2353C41.7918 18.9537 43.1377 18.4161 44.3602 17.6609C43.8909 19.1585 42.9155 20.4257 41.619 21.2321C42.8537 21.0785 44.0638 20.7329 45.1998 20.2209C44.3602 21.5265 43.2983 22.6529 42.0758 23.5745Z" fill="white"/>
</svg>
