<svg width="1119" height="20" viewBox="0 0 1119 20" fill="none" xmlns="http://www.w3.org/2000/svg">
<g opacity="0.6">
<path d="M0.646447 9.64645C0.451184 9.84171 0.451184 10.1583 0.646447 10.3536L3.82843 13.5355C4.02369 13.7308 4.34027 13.7308 4.53553 13.5355C4.7308 13.3403 4.7308 13.0237 4.53553 12.8284L1.70711 10L4.53553 7.17157C4.7308 6.97631 4.7308 6.65973 4.53553 6.46447C4.34027 6.2692 4.02369 6.2692 3.82843 6.46447L0.646447 9.64645ZM1118.35 10.3537C1118.55 10.1584 1118.55 9.84181 1118.35 9.64654L1115.17 6.46456C1114.98 6.2693 1114.66 6.2693 1114.46 6.46456C1114.27 6.65983 1114.27 6.97641 1114.46 7.17167L1117.29 10.0001L1114.46 12.8285C1114.27 13.0238 1114.27 13.3404 1114.46 13.5356C1114.66 13.7309 1114.98 13.7309 1115.17 13.5356L1118.35 10.3537ZM1 10.5L1118 10.5001L1118 9.5001L1 9.5L1 10.5Z" fill="#CE0019"/>
<circle cx="10" cy="10" r="9.5" transform="matrix(-4.37114e-08 1 1 4.37114e-08 1085 0)" fill="#18202D" stroke="#CE0019"/>
<circle cx="10" cy="10" r="9.5" transform="matrix(-4.37114e-08 1 1 4.37114e-08 14 0)" fill="#28212A" stroke="#CE0019"/>
</g>
</svg>
