<svg width="276" height="14" viewBox="0 0 276 14" fill="none" xmlns="http://www.w3.org/2000/svg">
<g opacity="0.6">
<path d="M0.646447 6.64645C0.451184 6.84171 0.451184 7.15829 0.646447 7.35355L3.82843 10.5355C4.02369 10.7308 4.34027 10.7308 4.53553 10.5355C4.7308 10.3403 4.7308 10.0237 4.53553 9.82843L1.70711 7L4.53553 4.17157C4.7308 3.97631 4.7308 3.65973 4.53553 3.46447C4.34027 3.2692 4.02369 3.2692 3.82843 3.46447L0.646447 6.64645ZM275.354 7.35358C275.549 7.15832 275.549 6.84173 275.354 6.64647L272.172 3.46449C271.976 3.26923 271.66 3.26923 271.464 3.46449C271.269 3.65975 271.269 3.97633 271.464 4.1716L274.293 7.00002L271.464 9.82845C271.269 10.0237 271.269 10.3403 271.464 10.5356C271.66 10.7308 271.976 10.7308 272.172 10.5356L275.354 7.35358ZM1 7.5L275 7.50002L275 6.50002L1 6.5L1 7.5Z" fill="#CE0019"/>
<path d="M265 13.5C268.59 13.5 271.5 10.5899 271.5 7C271.5 3.41015 268.59 0.5 265 0.5C261.41 0.5 258.5 3.41015 258.5 7C258.5 10.5899 261.41 13.5 265 13.5Z" fill="#182433" stroke="#CE0019"/>
<path d="M11 13.5C14.5899 13.5 17.5 10.5899 17.5 7C17.5 3.41015 14.5899 0.5 11 0.5C7.41015 0.5 4.5 3.41015 4.5 7C4.5 10.5899 7.41015 13.5 11 13.5Z" fill="#222029" stroke="#CE0019"/>
</g>
</svg>
