<svg width="1346" height="373" viewBox="0 0 1346 373" fill="none" xmlns="http://www.w3.org/2000/svg">
<path opacity="0.1" d="M-162 316.619C-162 316.619 32.665 192.798 173.179 183.945C353.184 172.604 511.571 301.105 607.948 339.623C704.326 378.141 919.466 401.154 1064.67 296.29C1185.6 208.955 1178.23 93.1578 1251 -37" stroke="white"/>
<path opacity="0.1" d="M-131 316.619C-131 316.619 63.665 192.798 204.179 183.945C384.184 172.604 542.571 301.105 638.948 339.623C735.326 378.141 950.466 401.154 1095.67 296.29C1216.6 208.955 1209.23 93.1578 1282 -37" stroke="white"/>
<path opacity="0.1" d="M-100 316.619C-100 316.619 94.665 192.798 235.179 183.945C415.184 172.604 573.571 301.105 669.948 339.623C766.326 378.141 981.466 401.154 1126.67 296.29C1247.6 208.955 1240.23 93.1578 1313 -37" stroke="white"/>
<path opacity="0.1" d="M-69 316.619C-69 316.619 125.803 192.798 266.416 183.945C446.548 172.604 605.048 301.105 701.493 339.623C797.939 378.141 1013.23 401.154 1158.54 296.29C1279.56 208.955 1272.18 93.1578 1345 -37" stroke="white"/>
<g opacity="0.6" clip-path="url(#clip0_367_164)">
<mask id="mask0_367_164" style="mask-type:luminance" maskUnits="userSpaceOnUse" x="907" y="190" width="21" height="21">
<path d="M928 190H907V211H928V190Z" fill="white"/>
</mask>
<g mask="url(#mask0_367_164)">
<path d="M917.5 211C917.196 201.053 916.947 200.806 907 200.5C916.947 200.196 917.194 199.947 917.5 190C917.804 199.947 918.053 200.194 928 200.5C918.053 200.806 917.806 201.049 917.5 211Z" fill="#CE0019"/>
</g>
</g>
<g clip-path="url(#clip1_367_164)">
<mask id="mask1_367_164" style="mask-type:luminance" maskUnits="userSpaceOnUse" x="470" y="145" width="32" height="32">
<path d="M502 145H470V177H502V145Z" fill="white"/>
</mask>
<g mask="url(#mask1_367_164)">
<path d="M486 177C485.537 161.842 485.158 161.466 470 161C485.158 160.537 485.534 160.158 486 145C486.463 160.158 486.842 160.534 502 161C486.842 161.466 486.466 161.837 486 177Z" fill="#CE0019"/>
</g>
</g>
<defs>
<clipPath id="clip0_367_164">
<rect width="21" height="21" fill="white" transform="translate(907 190)"/>
</clipPath>
<clipPath id="clip1_367_164">
<rect width="32" height="32" fill="white" transform="translate(470 145)"/>
</clipPath>
</defs>
</svg>
