<svg width="239" height="239" viewBox="0 0 239 239" fill="none" xmlns="http://www.w3.org/2000/svg">
<g opacity="0.1" clip-path="url(#clip0_270_3709)">
<path fill-rule="evenodd" clip-rule="evenodd" d="M119.5 40.2057C110.865 40.2057 103.865 47.2058 103.865 55.8412H63.6588C63.6588 25.001 88.6598 0 119.5 0C150.341 0 175.341 25.001 175.341 55.8412C175.341 86.6814 150.341 111.682 119.5 111.682V71.4767C128.135 71.4767 135.135 64.4763 135.135 55.8412C135.135 47.2058 128.135 40.2057 119.5 40.2057ZM198.794 119.5C198.794 110.865 191.794 103.865 183.159 103.865V63.6588C213.999 63.6588 239 88.6598 239 119.5C239 150.341 213.999 175.341 183.159 175.341C152.318 175.341 127.318 150.341 127.318 119.5H167.523C167.523 128.135 174.524 135.135 183.159 135.135C191.794 135.135 198.794 128.135 198.794 119.5ZM55.8412 135.135C47.2058 135.135 40.2057 128.135 40.2057 119.5C40.2057 110.865 47.2058 103.865 55.8412 103.865C64.4763 103.865 71.4767 110.865 71.4767 119.5H111.682C111.682 88.6598 86.6814 63.6588 55.8412 63.6588C25.001 63.6588 0 88.6598 0 119.5C0 150.341 25.001 175.341 55.8412 175.341V135.135ZM119.5 198.794C128.135 198.794 135.135 191.794 135.135 183.159H175.341C175.341 213.999 150.341 239 119.5 239C88.6598 239 63.6588 213.999 63.6588 183.159C63.6588 152.318 88.6598 127.318 119.5 127.318V167.523C110.865 167.523 103.865 174.524 103.865 183.159C103.865 191.794 110.865 198.794 119.5 198.794Z" fill="black"/>
</g>
<defs>
<clipPath id="clip0_270_3709">
<rect width="239" height="239" fill="white"/>
</clipPath>
</defs>
</svg>
