<svg width="20" height="20" viewBox="0 0 20 20" fill="none" xmlns="http://www.w3.org/2000/svg">
<g opacity="0.2" clip-path="url(#clip0_171_2365)">
<path d="M2.5 9.16667C2.5 10.0421 2.67244 10.9091 3.00747 11.7179C3.3425 12.5267 3.83356 13.2617 4.45262 13.8807C5.07168 14.4998 5.80661 14.9908 6.61544 15.3259C7.42428 15.6609 8.29119 15.8333 9.16667 15.8333C10.0421 15.8333 10.9091 15.6609 11.7179 15.3259C12.5267 14.9908 13.2617 14.4998 13.8807 13.8807C14.4998 13.2617 14.9908 12.5267 15.3259 11.7179C15.6609 10.9091 15.8333 10.0421 15.8333 9.16667C15.8333 8.29119 15.6609 7.42428 15.3259 6.61544C14.9908 5.80661 14.4998 5.07168 13.8807 4.45262C13.2617 3.83356 12.5267 3.3425 11.7179 3.00747C10.9091 2.67244 10.0421 2.5 9.16667 2.5C8.29119 2.5 7.42428 2.67244 6.61544 3.00747C5.80661 3.3425 5.07168 3.83356 4.45262 4.45262C3.83356 5.07168 3.3425 5.80661 3.00747 6.61544C2.67244 7.42428 2.5 8.29119 2.5 9.16667Z" stroke="white" stroke-width="1.5" stroke-linecap="round" stroke-linejoin="round"/>
<path d="M17.5003 17.5L14.167 14.1667" stroke="white" stroke-width="1.5" stroke-linecap="round" stroke-linejoin="round"/>
</g>
<defs>
<clipPath id="clip0_171_2365">
<rect width="20" height="20" fill="white"/>
</clipPath>
</defs>
</svg>
