<svg width="1023" height="56" viewBox="0 0 1023 56" fill="none" xmlns="http://www.w3.org/2000/svg">
<path d="M9.64645 55.3531C9.84171 55.5483 10.1583 55.5483 10.3536 55.3531L13.5355 52.1711C13.7308 51.9758 13.7308 51.6592 13.5355 51.464C13.3403 51.2687 13.0237 51.2687 12.8284 51.464L10 54.2924L7.17157 51.464C6.97631 51.2687 6.65973 51.2687 6.46447 51.464C6.2692 51.6592 6.2692 51.9758 6.46447 52.1711L9.64645 55.3531ZM1012.65 54.8535C1012.84 55.0488 1013.16 55.0488 1013.35 54.8535L1016.54 51.6716C1016.73 51.4763 1016.73 51.1597 1016.54 50.9645C1016.34 50.7692 1016.02 50.7692 1015.83 50.9645L1013 53.7929L1010.17 50.9645C1009.98 50.7692 1009.66 50.7692 1009.46 50.9645C1009.27 51.1597 1009.27 51.4763 1009.46 51.6716L1012.65 54.8535ZM1013 26.0001L1013.5 26.0001L1013.5 25.5001L1013 25.5001L1013 26.0001ZM10 26.0001L10 25.5001L9.5 25.5001L9.5 26.0001L10 26.0001ZM1012.5 26.0001L1012.5 54.5L1013.5 54.5L1013.5 26.0001L1012.5 26.0001ZM10.5 54.9995L10.5 26.0001L9.5 26.0001L9.5 54.9995L10.5 54.9995ZM10 26.5001L1013 26.5001L1013 25.5001L10 25.5001L10 26.5001Z" fill="#CE0019"/>
<line x1="511.5" y1="29" x2="511.5" y2="2.18557e-08" stroke="#CE0019"/>
<circle cx="10" cy="10" r="9.5" transform="matrix(-4.37114e-08 1 1 4.37114e-08 1003 16)" fill="#18202D" stroke="#CE0019"/>
<circle cx="10" cy="10" r="9.5" transform="matrix(-4.37114e-08 1 1 4.37114e-08 0 16)" fill="#28212A" stroke="#CE0019"/>
<circle cx="10" cy="10" r="9.5" transform="matrix(-4.37114e-08 1 1 4.37114e-08 502 16)" fill="#28212A" stroke="#CE0019"/>
</svg>
