<svg width="60" height="60" viewBox="0 0 60 60" fill="none" xmlns="http://www.w3.org/2000/svg">
<g opacity="0.1" clip-path="url(#clip0_270_3453)">
<path d="M30 60C27.5 60 25.4167 59.1927 23.75 57.5781C22.0833 55.9635 21.25 54.0105 21.25 51.7188C21.25 50.4168 21.5104 49.2447 22.0312 48.2031C22.5521 47.1615 23.4635 46.0155 24.7656 44.7657C26.1198 43.5156 27.1875 42.3438 27.9688 41.25C28.8021 40.1043 29.2187 39.1146 29.2187 38.2812V35.4687C28.0729 35.2083 27.0573 34.6875 26.1719 33.9063C25.3385 33.0729 24.7917 32.0832 24.5312 30.9375H21.7187C20.8333 30.9375 19.7917 31.3542 18.5938 32.1876C17.3958 33.0207 16.25 34.0365 15.1562 35.2344C14.0625 36.4323 12.9688 37.3176 11.875 37.8906C10.8333 38.4636 9.63543 38.7501 8.28126 38.7501C5.93751 38.7501 3.95832 37.9167 2.34375 36.2499C0.781251 34.5834 0 32.4999 0 30C0 27.5 0.781251 25.4167 2.34375 23.75C3.95832 22.0833 5.93751 21.25 8.28126 21.25C10.4687 21.25 12.3437 22.0312 13.9063 23.5937C15.4688 25.1563 16.875 26.4844 18.125 27.5781C19.375 28.6719 20.5729 29.2187 21.7187 29.2187H24.5312C24.7917 28.0208 25.3385 27.0312 26.1719 26.25C27.0573 25.4167 28.0729 24.8958 29.2187 24.6875V21.875C29.2187 20.5208 28.1771 18.8021 26.0938 16.7188L24.4531 15.0781C22.3177 12.9427 21.25 10.6771 21.25 8.28126C21.25 5.93751 22.0833 3.98436 23.75 2.42187C25.4687 0.807291 27.5521 0 30 0C32.4999 0 34.5834 0.807291 36.2499 2.42187C37.9167 4.03647 38.7501 5.98959 38.7501 8.28126C38.7501 10.9375 37.4478 13.4375 34.8438 15.7813C32.2395 18.1771 30.9375 20.2083 30.9375 21.875V24.6875C32.1354 24.8958 33.1251 25.4167 33.9063 26.25C34.7397 27.0312 35.2605 28.0208 35.4687 29.2187H38.2812C40.0521 29.2187 42.0834 27.8906 44.3751 25.2344C46.7187 22.5781 49.1667 21.25 51.7188 21.25C54.0624 21.25 56.0157 22.1094 57.5781 23.8281C59.1927 25.4948 60 27.5521 60 30C60 32.4999 59.1927 34.5834 57.5781 36.2499C55.9635 37.9167 54.0105 38.7501 51.7188 38.7501C49.5312 38.7501 47.6823 37.9947 46.1718 36.4845C44.6616 34.974 43.2552 33.672 41.9532 32.5782C40.6509 31.4844 39.4272 30.9375 38.2812 30.9375H35.4687C35.052 33.4374 33.5418 34.9479 30.9375 35.4687V38.2812C30.9375 39.8436 32.2395 41.8491 34.8438 44.2968C37.4478 46.7448 38.7501 49.2186 38.7501 51.7188C38.7501 54.0624 37.8906 56.0157 36.1719 57.5781C34.5051 59.1927 32.448 60 30 60Z" fill="white"/>
</g>
<defs>
<clipPath id="clip0_270_3453">
<rect width="60" height="60" fill="white"/>
</clipPath>
</defs>
</svg>
