<svg width="48" height="13" viewBox="0 0 48 13" fill="none" xmlns="http://www.w3.org/2000/svg">
<path d="M0.646446 5.64645C0.451187 5.84171 0.451187 6.15829 0.646446 6.35355L3.82843 9.53553C4.02369 9.7308 4.34027 9.7308 4.53553 9.53553C4.7308 9.34027 4.7308 9.02369 4.53553 8.82843L1.70711 6L4.53553 3.17157C4.7308 2.97631 4.7308 2.65973 4.53553 2.46447C4.34027 2.2692 4.02369 2.2692 3.82843 2.46447L0.646446 5.64645ZM48 5.5H1V6.5H48V5.5Z" fill="#CE0019"/>
<path d="M16.5 12C13.4624 12 11 9.53757 11 6.5C11 3.46243 13.4624 1 16.5 1C19.5376 1 22 3.46243 22 6.5C22 9.53757 19.5376 12 16.5 12Z" fill="#1A1E2B" stroke="#CE0019"/>
</svg>
